<svg width="24" height="24" viewBox="0 0 24 24" fill="none" xmlns="http://www.w3.org/2000/svg">
<path d="M22 13C22 18.523 17.523 23 12 23C6.4772 23 2 18.523 2 13C2 7.4772 6.4772 3 12 3C17.523 3 22 7.4772 22 13Z" fill="#27AE60"/>
<path d="M22 12C22 17.523 17.523 22 12 22C6.4772 22 2 17.523 2 12C2 6.4772 6.4772 2 12 2C17.523 2 22 6.4772 22 12Z" fill="#2ECC71"/>
<path d="M6.0001 14H11V19H13V14H18V12H13V7H11V12H6.0001V14Z" fill="#27AE60"/>
<path d="M6 13H11V18H13V13H18V11H13V6H11V11H6V13Z" fill="#ECF0F1"/>
</svg>
