<svg width="512" height="512" viewBox="0 0 512 512" fill="none" xmlns="http://www.w3.org/2000/svg">
<path d="M322.7 128.4L423 233.4C429 239.2 432 247.1 432 255.8C432 264.5 429 272.3 423 278.2L322.7 383.6C310.8 396.1 291.4 396.1 279.5 383.6C267.6 371.1 267.6 350.9 279.5 338.4L327.7 288H110.7C93.7 288 80 273.7 80 256C80 238.3 93.7 224 110.6 224H327.6L279.4 173.6C267.5 161.1 267.5 140.9 279.4 128.4C291.4 115.9 310.7 115.9 322.7 128.4Z" fill="#99A1AF"/>
<path d="M145.5 266C191.327 266 231.288 292.482 251.72 331.548L252.199 332.473L252.205 332.485L252.212 332.497C253.388 334.823 254 337.392 254 339.998C254 342.604 253.388 345.173 252.212 347.499L252.206 347.512L252.199 347.523C231.929 387.081 191.689 414 145.5 414C99.3118 414 59.0823 387.099 38.8008 347.527L38.7949 347.515L38.7881 347.503C37.6124 345.177 37 342.608 37 340.002C37 337.396 37.6124 334.827 38.7881 332.501L38.7939 332.488L38.8008 332.477C59.0714 292.919 99.3113 266 145.5 266ZM163.391 296.809C154.848 293.27 145.448 292.345 136.38 294.148C127.311 295.952 118.98 300.404 112.442 306.942C105.904 313.48 101.452 321.811 99.6484 330.88C97.8447 339.948 98.7702 349.348 102.309 357.891C105.847 366.433 111.839 373.734 119.527 378.871C127.215 384.008 136.254 386.75 145.5 386.75H145.502C151.642 386.753 157.722 385.545 163.396 383.197C169.068 380.849 174.223 377.406 178.564 373.064C182.906 368.723 186.349 363.568 188.697 357.896C191.045 352.222 192.253 346.142 192.25 340.002V340C192.25 330.754 189.508 321.715 184.371 314.027C179.234 306.339 171.933 300.347 163.391 296.809ZM145.488 300.5C153.734 300.481 161.779 303.048 168.49 307.84C175.201 312.632 180.239 319.408 182.897 327.214C185.556 335.02 185.699 343.463 183.308 351.354C180.916 359.246 176.11 366.189 169.565 371.206C163.021 376.223 155.068 379.062 146.826 379.322C138.584 379.583 130.467 377.251 123.619 372.657C116.771 368.063 111.536 361.438 108.651 353.713C105.766 345.988 105.376 337.553 107.536 329.595L109.448 322.552L115.325 326.877C117.674 328.606 120.565 329.435 123.474 329.215C126.382 328.995 129.115 327.74 131.178 325.678C133.24 323.615 134.495 320.882 134.715 317.974C134.935 315.065 134.106 312.174 132.377 309.825L128.136 304.062L135.007 302.062C138.395 301.075 141.901 300.549 145.43 300.5H145.488Z" fill="#99A1AF" stroke="white" stroke-width="10"/>
</svg>
