<svg width="512" height="512" viewBox="0 0 512 512" fill="none" xmlns="http://www.w3.org/2000/svg">
<path d="M322.7 128.4L423 233.4C429 239.2 432 247.1 432 255.8C432 264.5 429 272.3 423 278.2L322.7 383.6C310.8 396.1 291.4 396.1 279.5 383.6C267.6 371.1 267.6 350.9 279.5 338.4L327.7 288H110.7C93.7 288 80 273.7 80 256C80 238.3 93.7 224 110.6 224H327.6L279.4 173.6C267.5 161.1 267.5 140.9 279.4 128.4C291.4 115.9 310.7 115.9 322.7 128.4Z" fill="#99A1AF"/>
<path d="M45.1006 245.082C46.4813 244.909 47.8823 245.011 49.2236 245.381C50.5596 245.75 51.8092 246.378 52.9023 247.229L94.6826 279.628C110.41 271.602 127.816 267.397 145.493 267.376H145.499C190.001 267.376 228.794 293.178 248.624 331.221L249.089 332.121L249.095 332.134L249.102 332.146C250.25 334.426 250.849 336.945 250.849 339.498C250.849 342.052 250.25 344.57 249.102 346.851L249.095 346.864L249.088 346.877C242.735 359.299 234.29 370.508 224.141 380.018L257.909 406.204L257.919 406.212C260.133 407.938 261.57 410.472 261.918 413.254C262.266 416.036 261.499 418.846 259.781 421.064L259.78 421.065L252.938 429.9C252.086 430.999 251.026 431.921 249.818 432.61C248.61 433.3 247.278 433.745 245.897 433.918C244.517 434.091 243.115 433.989 241.773 433.619C240.437 433.25 239.188 432.622 238.095 431.771V431.772L33.0889 272.796L33.083 272.791L33.0771 272.787C30.8642 271.06 29.4292 268.525 29.082 265.743C28.7349 262.961 29.5024 260.151 31.2207 257.934H31.2217L38.0596 249.101L38.0605 249.1C38.9117 248.001 39.9709 247.079 41.1787 246.39C42.3868 245.7 43.7198 245.255 45.1006 245.082ZM62.2207 311.014L98.7715 339.355L100.525 340.716L100.693 342.93C102.47 366.405 121.757 384.841 145.498 384.842C148.22 384.814 150.934 384.54 153.606 384.022L155.833 383.591L157.624 384.981L175.705 399.018L183.74 405.257L173.893 407.808C164.847 410.151 155.376 411.624 145.499 411.624C100.647 411.624 61.5934 385.414 41.9092 346.879L41.9023 346.866L41.8965 346.854C40.7476 344.574 40.1494 342.055 40.1494 339.502C40.1494 336.948 40.7476 334.43 41.8965 332.149L41.9023 332.138L41.9082 332.127C45.6731 324.749 50.3029 318.071 55.2412 311.854L58.3154 307.985L62.2207 311.014ZM145.502 294.157C137.181 294.164 129.071 296.507 122.064 300.861L130.676 307.539L128.421 304.473L135.274 302.465C140.983 300.792 147.004 300.487 152.853 301.572C158.701 302.658 164.213 305.104 168.946 308.714C173.679 312.324 177.502 316.996 180.106 322.354C182.711 327.711 184.026 333.606 183.948 339.565V339.566C183.91 342.419 183.552 345.255 182.885 348.021L188.625 352.473C189.935 348.347 190.674 344.015 190.674 339.5V339.497C190.677 333.54 189.51 327.64 187.239 322.137C184.969 316.633 181.64 311.634 177.444 307.424C173.248 303.214 168.268 299.875 162.787 297.599C157.306 295.323 151.433 294.154 145.502 294.157Z" fill="#99A1AF" stroke="white" stroke-width="10"/>
</svg>
