<svg width="424" height="424" viewBox="0 0 424 424" fill="none" xmlns="http://www.w3.org/2000/svg">
<path d="M118.511 84.4545V339H49.4062V84.4545H118.511ZM249.202 339H151.262V84.4545H248.208C274.391 84.4545 297.012 89.5504 316.07 99.7422C335.211 109.851 349.96 124.434 360.317 143.492C370.757 162.467 375.978 185.212 375.978 211.727C375.978 238.242 370.799 261.029 360.441 280.087C350.084 299.062 335.418 313.645 316.443 323.837C297.468 333.946 275.054 339 249.202 339ZM220.367 280.335H246.716C259.311 280.335 270.041 278.305 278.907 274.245C287.856 270.185 294.651 263.183 299.291 253.24C304.014 243.297 306.375 229.459 306.375 211.727C306.375 193.995 303.972 180.158 299.167 170.214C294.444 160.271 287.483 153.27 278.286 149.21C269.171 145.149 257.985 143.119 244.728 143.119H220.367V280.335Z" fill="#99A1AF"/>
</svg>
