<svg width="135" height="135" viewBox="0 0 135 135" fill="none" xmlns="http://www.w3.org/2000/svg">
<path d="M119.78 73.7781L115.217 68.8771C115.222 68.8341 115.221 68.7921 115.216 68.7281C115.314 67.6351 115.379 66.5341 115.422 65.4321C115.432 65.1141 115.419 64.7741 115.425 64.4561C115.434 63.6111 115.422 62.7941 115.384 61.9781C115.368 61.6211 115.349 61.2891 115.326 60.9341C115.307 60.3891 115.279 59.8511 115.238 59.2821L119.814 54.4151C121.997 52.0901 125.96 49.0031 124.747 46.0641L119.737 33.9071C118.524 30.9651 113.543 31.5821 110.358 31.4711L103.677 31.2301C103.172 30.6261 102.628 30.0521 102.105 29.4691C102.085 29.4471 102.061 29.4131 102.036 29.3821C101.85 29.1871 101.693 28.9751 101.505 28.7831C101.222 28.4751 100.896 28.1811 100.604 27.8811C100.181 27.4551 99.76 27.0221 99.326 26.6101C98.614 25.9251 97.863 25.2791 97.123 24.6381C97.093 24.6071 97.045 24.5811 97.019 24.5601C96.979 24.5211 96.943 24.4771 96.903 24.4371L96.687 17.7441C96.589 14.5751 97.212 9.58513 94.29 8.36913L82.129 3.30813C79.203 2.09013 76.095 6.05513 73.777 8.21813L68.88 12.7901C67.782 12.6801 66.692 12.6231 65.601 12.5811C65.296 12.5691 64.989 12.5751 64.663 12.5771C63.96 12.5711 63.251 12.5501 62.528 12.5781C61.615 12.6071 60.702 12.6641 59.792 12.7431C59.675 12.7491 59.558 12.7491 59.466 12.7571C59.401 12.7701 59.352 12.7601 59.286 12.7731L54.415 8.18713C52.094 6.01613 49.003 2.04113 46.064 3.25213L33.907 8.26213C30.965 9.47413 31.587 14.4671 31.47 17.6431L31.233 24.3341C31.16 24.3891 31.087 24.4651 31.019 24.5321C30.22 25.1981 29.436 25.8861 28.674 26.6021C28.393 26.8781 28.122 27.1561 27.847 27.4351C27.306 27.9621 26.763 28.5061 26.244 29.0651C25.978 29.3551 25.733 29.6491 25.474 29.9451C25.122 30.3271 24.778 30.7041 24.441 31.1071L17.744 31.3121C14.575 31.4111 9.58501 30.7881 8.36901 33.7111L3.30601 45.8711C2.08901 48.7981 6.04801 51.8951 8.21101 54.2131L12.784 59.1111C12.71 59.8691 12.677 60.6231 12.635 61.3901C12.636 61.4611 12.623 61.5361 12.625 61.6071C12.563 62.9071 12.532 64.2051 12.577 65.4991C12.598 66.0671 12.64 66.6251 12.676 67.1921C12.709 67.6501 12.719 68.1161 12.762 68.5731C12.759 68.6231 12.763 68.6691 12.767 68.7031L8.18501 73.5871C6.01301 75.9041 2.03501 78.9861 3.24601 81.9241L8.25601 94.0811C9.46901 97.0251 14.465 96.4121 17.641 96.5281L24.328 96.7551C24.373 96.8211 24.427 96.8601 24.475 96.9281C25.153 97.7421 25.865 98.5371 26.607 99.3371C26.868 99.6181 27.144 99.8591 27.409 100.135C27.954 100.688 28.503 101.235 29.071 101.768C29.35 102.01 29.645 102.263 29.927 102.524C30.322 102.873 30.706 103.229 31.102 103.547L31.306 110.243C31.406 113.412 30.786 118.414 33.71 119.631L45.87 124.693C48.798 125.912 51.893 121.95 54.211 119.787L59.113 115.225C59.167 115.226 59.219 115.219 59.273 115.22C59.904 115.29 60.53 115.314 61.156 115.346C61.344 115.362 61.526 115.363 61.704 115.382C61.998 115.391 62.28 115.414 62.564 115.424C62.9 115.431 63.235 115.421 63.571 115.422C64.388 115.441 65.206 115.424 66.016 115.387C66.369 115.375 66.73 115.348 67.079 115.328C67.63 115.304 68.161 115.277 68.703 115.245L73.582 119.815C75.906 121.998 78.981 125.966 81.919 124.753L94.077 119.743C97.02 118.529 96.412 113.544 96.524 110.358L96.754 103.682C97.327 103.204 97.879 102.706 98.412 102.22C98.487 102.133 98.573 102.072 98.655 102.003C98.841 101.827 99.04 101.679 99.2 101.51C99.524 101.223 99.803 100.906 100.098 100.62C100.52 100.193 100.968 99.7661 101.397 99.3191C102.02 98.6501 102.647 97.9501 103.253 97.2211C103.322 97.1561 103.376 97.1011 103.435 97.0161C103.486 96.9711 103.517 96.9411 103.546 96.9061L110.237 96.6911C113.406 96.5921 118.408 97.2121 119.625 94.2881L124.687 82.1281C125.91 79.2031 121.942 76.0961 119.78 73.7781ZM90.75 64.0001C90.75 78.7731 78.773 90.7501 64 90.7501C49.227 90.7501 37.25 78.7731 37.25 64.0001C37.25 49.2271 49.227 37.2501 64 37.2501C78.773 37.2501 90.75 49.2271 90.75 64.0001Z" fill="#ADADAD"/>
<path d="M64 90.75C78.773 90.75 90.75 78.773 90.75 64C90.75 49.227 78.773 37.25 64 37.25C49.227 37.25 37.25 49.227 37.25 64C37.25 78.773 49.227 90.75 64 90.75Z" stroke="#606060" stroke-width="15"/>
<rect x="59" y="59" width="76" height="76" rx="38" fill="#E9CC28"/>
<path d="M74.7867 105.52L74.7789 105.522C74.7818 105.527 74.7838 105.532 74.7867 105.539C74.7905 105.588 74.7992 105.633 74.806 105.68C74.8069 105.688 74.806 105.694 74.8069 105.702L76.7019 118.007C76.9315 119.502 78.3292 120.526 79.8224 120.295C81.3166 120.065 82.341 118.669 82.1114 117.174L81.8167 115.262C82.1601 115.545 82.5064 115.826 82.8658 116.088C87.7399 119.667 94.0123 121.387 100.463 120.393C106.913 119.402 112.377 115.874 115.95 110.995C117.716 108.589 119.014 105.837 119.77 102.895L112.305 100.84C111.801 102.861 110.915 104.751 109.698 106.411C107.281 109.703 103.637 112.061 99.2834 112.732C94.9297 113.401 90.7442 112.249 87.4496 109.836C87.044 109.539 86.6562 109.218 86.2805 108.883L88.4451 109.093C89.8303 109.226 91.0712 108.116 91.2174 106.612C91.3621 105.107 90.3574 103.779 88.9722 103.646L77.5614 102.541C76.3228 102.421 75.2058 103.299 74.8778 104.561C74.8537 104.65 74.8412 104.741 74.8252 104.833C74.8151 104.897 74.7958 104.956 74.7896 105.021C74.7876 105.041 74.7905 105.059 74.7891 105.076C74.7828 105.16 74.7871 105.246 74.7881 105.331C74.7876 105.395 74.7823 105.459 74.7867 105.52Z" fill="white"/>
<path d="M118.934 88.4798L118.941 88.4788C118.938 88.4726 118.936 88.4673 118.934 88.461C118.93 88.4127 118.921 88.3669 118.914 88.3197C118.913 88.3124 118.914 88.3057 118.913 88.2984L117.019 75.9934C116.789 74.4997 115.392 73.4753 113.897 73.7053C112.404 73.9354 111.379 75.3322 111.609 76.8259L111.904 78.7392C111.56 78.456 111.213 78.1753 110.854 77.912C105.98 74.3338 99.7074 72.612 93.258 73.607C86.8076 74.5981 81.3436 78.1266 77.7716 83.0056C76.0045 85.4118 74.7066 88.1644 73.9508 91.1055L81.4164 93.1601C81.919 91.1392 82.8064 89.2495 84.0223 87.589C86.4396 84.2977 90.0844 81.9402 94.4377 81.2684C98.7915 80.5999 102.976 81.7516 106.272 84.1632C106.677 84.4612 107.065 84.7824 107.44 85.1162L105.276 84.9069C103.891 84.7728 102.65 85.884 102.504 87.3879C102.358 88.8922 103.364 90.2204 104.748 90.354L116.159 91.459C117.398 91.5786 118.515 90.7008 118.843 89.4391C118.867 89.3504 118.88 89.2587 118.894 89.1666C118.905 89.1029 118.925 89.0436 118.931 88.978C118.934 88.9597 118.929 88.9418 118.931 88.924C118.937 88.8396 118.934 88.7537 118.932 88.6684C118.933 88.6057 118.937 88.5415 118.934 88.4798Z" fill="white"/>
</svg>
