<svg width="24" height="24" viewBox="0 0 24 24" fill="none" xmlns="http://www.w3.org/2000/svg">
<path d="M12 18C12 14.13 15.13 11 19 11C20.08 11 21.09 11.25 22 11.68V5C22 3.9 21.1 3 20 3H4C2.9 3 2 3.9 2 5V17C2 18.1 2.9 19 4 19H12.08C12.03 18.67 12 18.34 12 18ZM4 5L12 10L20 5V7L12 12L4 7V5Z" fill="black"/>
<path d="M17.995 12C15.235 12 13 14.24 13 17C13 19.76 15.235 22 17.995 22C20.76 22 23 19.76 23 17C23 14.24 20.76 12 17.995 12ZM18 20.6364C15.79 20.6364 14.3636 19.21 14.3636 17C14.3636 14.79 15.79 13.3636 18 13.3636C20.21 13.3636 21.6364 14.79 21.6364 17C21.6364 19.21 20.21 20.6364 18 20.6364Z" fill="black"/>
<path d="M18.0714 15H17V17.8L19.5714 19L20 18.2L18.0714 17.2951V15Z" fill="black"/>
</svg>
