<svg width="424" height="424" viewBox="0 0 424 424" fill="none" xmlns="http://www.w3.org/2000/svg">
<path d="M117.511 84.4545V339H48.4062V84.4545H117.511ZM248.202 339H150.262V84.4545H247.208C273.391 84.4545 296.012 89.5504 315.07 99.7422C334.211 109.851 348.96 124.434 359.317 143.492C369.757 162.467 374.978 185.212 374.978 211.727C374.978 238.242 369.799 261.029 359.441 280.087C349.084 299.062 334.418 313.645 315.443 323.837C296.468 333.946 274.054 339 248.202 339ZM219.367 280.335H245.716C258.311 280.335 269.041 278.305 277.907 274.245C286.856 270.185 293.651 263.183 298.291 253.24C303.014 243.297 305.375 229.459 305.375 211.727C305.375 193.995 302.972 180.158 298.167 170.214C293.444 160.271 286.483 153.27 277.286 149.21C268.171 145.149 256.985 143.119 243.728 143.119H219.367V280.335Z" fill="#99A1AF"/>
<line x1="27.6332" y1="382.102" x2="363.633" y2="91.1022" stroke="white" stroke-width="50"/>
</svg>
