<svg width="240" height="240" viewBox="0 0 240 240" fill="none" xmlns="http://www.w3.org/2000/svg">
<path d="M200 90C200 84.5 195.5 80 190 80H160V50C160 44.5 155.5 40 150 40C144.5 40 140 44.5 140 50V80H100V50C100 44.5 95.5 40 90 40C84.5 40 80 44.5 80 50V80H50C44.5 80 40 84.5 40 90C40 95.5 44.5 100 50 100H80V140H50C44.5 140 40 144.5 40 150C40 155.5 44.5 160 50 160H80V190C80 195.5 84.5 200 90 200C95.5 200 100 195.5 100 190V160H140V190C140 195.5 144.5 200 150 200C155.5 200 160 195.5 160 190V160H190C195.5 160 200 155.5 200 150C200 144.5 195.5 140 190 140H160V100H190C195.5 100 200 95.5 200 90ZM140 140H100V100H140V140Z" fill="#666666"/>
<circle cx="162" cy="158" r="52.5" fill="#666666" stroke="#F3F4F6" stroke-width="5"/>
<path d="M156.202 154.523V176H142.48V137.818H155.506V145.077H155.903C156.732 142.657 158.19 140.76 160.278 139.384C162.383 138.009 164.836 137.321 167.636 137.321C170.338 137.321 172.683 137.942 174.671 139.185C176.676 140.412 178.226 142.102 179.32 144.256C180.43 146.411 180.977 148.872 180.96 151.639V176H167.239V154.523C167.255 152.634 166.775 151.15 165.797 150.073C164.836 148.996 163.493 148.457 161.77 148.457C160.643 148.457 159.657 148.706 158.812 149.203C157.983 149.684 157.345 150.38 156.898 151.291C156.45 152.186 156.218 153.263 156.202 154.523Z" fill="#F3F4F6"/>
</svg>
