<svg width="240" height="240" viewBox="0 0 240 240" fill="none" xmlns="http://www.w3.org/2000/svg">
<path d="M200 90C200 84.5 195.5 80 190 80H160V50C160 44.5 155.5 40 150 40C144.5 40 140 44.5 140 50V80H100V50C100 44.5 95.5 40 90 40C84.5 40 80 44.5 80 50V80H50C44.5 80 40 84.5 40 90C40 95.5 44.5 100 50 100H80V140H50C44.5 140 40 144.5 40 150C40 155.5 44.5 160 50 160H80V190C80 195.5 84.5 200 90 200C95.5 200 100 195.5 100 190V160H140V190C140 195.5 144.5 200 150 200C155.5 200 160 195.5 160 190V160H190C195.5 160 200 155.5 200 150C200 144.5 195.5 140 190 140H160V100H190C195.5 100 200 95.5 200 90ZM140 140H100V100H140V140Z" fill="#666666"/>
<path d="M175.805 102C192.481 102 206 115.574 206 132.204C206 148.841 192.473 162.385 175.805 162.385C170.327 162.385 165.207 160.904 160.8 158.355L157.933 161.221C160.439 165.493 161.899 170.472 161.899 175.794C161.899 180.985 160.512 185.855 158.119 190.057L158.132 190.069C160.85 188.852 163.863 188.166 167.04 188.166C169.097 188.166 171.183 188.439 173.222 189.046H173.223C173.227 189.047 173.232 189.049 173.236 189.05C173.255 189.055 173.273 189.061 173.292 189.066L173.291 189.067C177.086 190.196 179.372 193.75 179.156 197.447C182.874 197.08 186.47 199.284 187.759 202.933L187.776 202.982L187.793 203.032C188.538 205.266 188.955 207.636 188.955 210.095C188.955 222.171 179.115 232 167.04 232C154.971 232 145.125 222.2 145.125 210.095C145.125 207.207 145.688 204.456 146.702 201.939L146.224 201.461C142.258 203.521 137.748 204.707 132.95 204.707C116.977 204.707 104 191.744 104 175.771C104 159.799 116.977 146.835 132.95 146.835C137.622 146.835 142.016 147.953 145.904 149.915L149.27 146.552C146.936 142.28 145.609 137.386 145.609 132.181C145.609 128.359 146.329 124.655 147.693 121.15C148.749 118.399 151.122 116.554 153.807 116.031C153.504 113.345 154.519 110.557 156.808 108.706L156.814 108.701L156.82 108.696C159.008 106.936 161.429 105.461 164.083 104.354C167.784 102.806 171.728 102 175.805 102ZM167.04 204.661C165.729 204.661 164.495 205.148 163.51 205.994C163.366 206.176 163.198 206.373 163.001 206.57C162.931 206.64 162.861 206.702 162.795 206.763C162.049 207.699 161.623 208.846 161.623 210.095C161.623 213.071 164.054 215.505 167.04 215.505C170.026 215.505 172.457 213.071 172.457 210.095C172.457 209.454 172.355 208.886 172.177 208.381L172.159 208.332L172.143 208.281C171.801 207.257 171.673 206.202 171.735 205.17C170.725 205.269 169.684 205.186 168.661 204.896C168.092 204.735 167.557 204.661 167.04 204.661ZM164.131 205.055C164.129 205.058 164.126 205.063 164.123 205.069C164.129 205.059 164.134 205.052 164.135 205.05C164.134 205.051 164.133 205.051 164.131 205.055ZM171.938 193.353L171.954 193.356C171.948 193.355 171.942 193.353 171.937 193.352L171.938 193.353ZM132.95 163.353C126.089 163.353 120.498 168.945 120.498 175.794C120.498 182.643 126.089 188.235 132.95 188.235C139.811 188.235 145.401 182.642 145.401 175.794C145.401 168.946 139.811 163.353 132.95 163.353ZM175.805 118.472C173.926 118.472 172.151 118.829 170.51 119.532L170.5 119.536L170.052 119.735C169.034 120.209 168.075 120.803 167.192 121.517C166.109 122.393 164.863 122.953 163.575 123.204C163.721 124.5 163.561 125.848 163.049 127.142L163.05 127.143C162.43 128.714 162.107 130.411 162.107 132.158C162.108 139.698 168.252 145.844 175.805 145.844C183.358 145.844 189.502 139.698 189.502 132.158C189.502 124.618 183.358 118.472 175.805 118.472Z" fill="#666666" stroke="#F2F3F5" stroke-width="12"/>
<circle cx="175.5" cy="131.5" r="23.5" fill="#666666"/>
<circle cx="132.5" cy="175.5" r="19.5" fill="#666666"/>
<circle cx="167.5" cy="209.5" r="15.5" fill="#666666"/>
</svg>
