<svg width="76" height="76" viewBox="0 0 76 76" fill="none" xmlns="http://www.w3.org/2000/svg">
<rect width="76" height="76" rx="38" fill="#E9CC28"/>
<path d="M15.7867 46.5201L15.7789 46.5216C15.7818 46.5274 15.7838 46.5322 15.7867 46.5389C15.7905 46.5877 15.7992 46.633 15.806 46.6803C15.8069 46.6885 15.806 46.6942 15.8069 46.702L17.7019 59.0075C17.9315 60.5017 19.3292 61.5256 20.8224 61.2951C22.3166 61.0655 23.341 59.6687 23.1114 58.1741L22.8167 56.2617C23.1601 56.5448 23.5064 56.8255 23.8658 57.0884C28.7399 60.6671 35.0123 62.3875 41.4632 61.3934C47.9126 60.4018 53.3771 56.8743 56.9495 51.9948C58.7157 49.589 60.0136 46.8365 60.7703 43.8954L53.3047 41.8398C52.8012 43.8612 51.9147 45.7509 50.6979 47.4114C48.2805 50.7027 44.6372 53.0607 40.2834 53.732C35.9297 54.4015 31.7442 53.2488 28.4496 50.8363C28.044 50.5392 27.6562 50.218 27.2805 49.8832L29.4451 50.093C30.8303 50.2262 32.0712 49.1164 32.2174 47.6121C32.3621 46.1073 31.3574 44.7795 29.9722 44.6459L18.5614 43.5409C17.3228 43.4213 16.2058 44.2991 15.8778 45.5608C15.8537 45.6501 15.8412 45.7412 15.8252 45.8333C15.8151 45.897 15.7958 45.9563 15.7896 46.0214C15.7876 46.0412 15.7905 46.0586 15.7891 46.0764C15.7828 46.1603 15.7871 46.2457 15.7881 46.3311C15.7876 46.3947 15.7823 46.4589 15.7867 46.5201Z" fill="white"/>
<path d="M59.934 29.4798L59.9413 29.4788C59.9384 29.4726 59.9364 29.4672 59.9335 29.461C59.9297 29.4128 59.9205 29.3669 59.9142 29.3197C59.9133 29.3124 59.9142 29.3057 59.9133 29.2984L58.0188 16.9934C57.7887 15.4997 56.392 14.4753 54.8973 14.7053C53.4036 14.9354 52.3792 16.3322 52.6092 17.8259L52.9044 19.7392C52.5596 19.456 52.2133 19.1753 51.8544 18.912C46.9803 15.3338 40.7074 13.612 34.258 14.607C27.8076 15.5981 22.3436 19.1266 18.7716 24.0056C17.0045 26.4118 15.7066 29.1644 14.9508 32.1055L22.4164 34.1601C22.919 32.1392 23.8064 30.2495 25.0223 28.589C27.4396 25.2977 31.0844 22.9402 35.4377 22.2684C39.7915 21.5999 43.976 22.7516 47.2716 25.1632C47.6772 25.4612 48.065 25.7824 48.4402 26.1162L46.2761 25.9069C44.8909 25.7728 43.6499 26.884 43.5043 28.3879C43.3581 29.8922 44.3637 31.2204 45.7484 31.354L57.1593 32.459C58.3979 32.5786 59.5149 31.7008 59.8429 30.4391C59.867 30.3504 59.8795 30.2587 59.8945 30.1666C59.9051 30.1029 59.9249 30.0436 59.9306 29.978C59.9335 29.9597 59.9292 29.9418 59.9306 29.924C59.9374 29.8396 59.934 29.7537 59.9321 29.6684C59.9326 29.6057 59.9374 29.5415 59.934 29.4798Z" fill="white"/>
</svg>
