<svg width="139" height="139" viewBox="0 0 139 139" fill="none" xmlns="http://www.w3.org/2000/svg">
<path d="M69.8457 138.641C31.8356 138.641 0.895203 107.717 0.895203 69.7073C0.895203 31.6973 31.8183 0.756836 69.8457 0.756836C107.856 0.756836 138.779 31.68 138.779 69.7073C138.779 107.717 107.856 138.641 69.8457 138.641ZM69.8457 17.3852C40.9968 17.3852 17.5235 40.8584 17.5235 69.7073C17.5235 98.5563 40.9968 122.029 69.8457 122.029C98.6946 122.029 122.168 98.5563 122.168 69.7073C122.168 40.8584 98.6946 17.3852 69.8457 17.3852Z" fill="#BDD2EF"/>
<path d="M56.5534 40.7892L99.749 65.7317C102.808 67.4947 102.808 71.9025 99.749 73.6655L56.5534 98.6253C53.4939 100.388 49.6739 98.1759 49.6739 94.6497V44.7648C49.6739 41.2386 53.4939 39.0261 56.5534 40.7892Z" fill="#2867CE"/>
</svg>
