<svg width="20" height="20" viewBox="0 0 20 20" fill="none" xmlns="http://www.w3.org/2000/svg">
<path d="M10 0C4.48 0 0 4.48 0 10C0 15.52 4.48 20 10 20C15.52 20 20 15.52 20 10C20 4.48 15.52 0 10 0ZM7.5 12.67V7.33C7.5 6.54 8.38 6.06 9.04 6.49L13.19 9.16C13.8 9.55 13.8 10.45 13.19 10.84L9.04 13.51C8.38 13.94 7.5 13.46 7.5 12.67Z" fill="#27AE60"/>
<mask id="path-2-outside-1_80_138" maskUnits="userSpaceOnUse" x="12" y="3" width="8" height="17" fill="black">
<rect fill="white" x="12" y="3" width="8" height="17"/>
<path d="M13.37 5H18.75V19H16.39V5.96L17.43 7H13.37V5Z"/>
</mask>
<path d="M13.37 5H18.75V19H16.39V5.96L17.43 7H13.37V5Z" fill="#606060"/>
<path d="M13.37 5V4H12.37V5H13.37ZM18.75 5H19.75V4H18.75V5ZM18.75 19V20H19.75V19H18.75ZM16.39 19H15.39V20H16.39V19ZM16.39 5.96L17.0971 5.25289L15.39 3.54579V5.96H16.39ZM17.43 7V8H19.8442L18.1371 6.29289L17.43 7ZM13.37 7H12.37V8H13.37V7ZM13.37 5V6H18.75V5V4H13.37V5ZM18.75 5H17.75V19H18.75H19.75V5H18.75ZM18.75 19V18H16.39V19V20H18.75V19ZM16.39 19H17.39V5.96H16.39H15.39V19H16.39ZM16.39 5.96L15.6829 6.66711L16.7229 7.70711L17.43 7L18.1371 6.29289L17.0971 5.25289L16.39 5.96ZM17.43 7V6H13.37V7V8H17.43V7ZM13.37 7H14.37V5H13.37H12.37V7H13.37Z" fill="white" mask="url(#path-2-outside-1_80_138)"/>
</svg>
